solid OpenSCAD_Model
  facet normal 0.980797 -0.195032 0
    outer loop
      vertex 15.8739 -15.3327 6.4
      vertex 15.95 -14.95 1.90735e-07
      vertex 15.95 -14.95 6.4
    endloop
  endfacet
  facet normal 0.980797 -0.195032 0
    outer loop
      vertex 15.95 -14.95 1.90735e-07
      vertex 15.8739 -15.3327 6.4
      vertex 15.8739 -15.3327 1.90735e-07
    endloop
  endfacet
  facet normal 0.195032 -0.980797 0
    outer loop
      vertex 14.95 -15.95 1.90735e-07
      vertex 15.3327 -15.8739 6.4
      vertex 14.95 -15.95 6.4
    endloop
  endfacet
  facet normal 0.195032 -0.980797 0
    outer loop
      vertex 15.3327 -15.8739 6.4
      vertex 14.95 -15.95 1.90735e-07
      vertex 15.3327 -15.8739 1.90735e-07
    endloop
  endfacet
  facet normal -0.195032 0.980797 0
    outer loop
      vertex -14.95 15.95 1.90735e-07
      vertex -15.3327 15.8739 6.4
      vertex -14.95 15.95 6.4
    endloop
  endfacet
  facet normal -0.195032 0.980797 0
    outer loop
      vertex -15.3327 15.8739 6.4
      vertex -14.95 15.95 1.90735e-07
      vertex -15.3327 15.8739 1.90735e-07
    endloop
  endfacet
  facet normal 0.555646 -0.831419 0
    outer loop
      vertex 15.3327 -15.8739 1.90735e-07
      vertex 15.6571 -15.6571 6.4
      vertex 15.3327 -15.8739 6.4
    endloop
  endfacet
  facet normal 0.555646 -0.831419 0
    outer loop
      vertex 15.6571 -15.6571 6.4
      vertex 15.3327 -15.8739 1.90735e-07
      vertex 15.6571 -15.6571 1.90735e-07
    endloop
  endfacet
  facet normal -0.831419 -0.555646 0
    outer loop
      vertex -15.6571 -15.6571 1.90735e-07
      vertex -15.8739 -15.3327 6.4
      vertex -15.8739 -15.3327 1.90735e-07
    endloop
  endfacet
  facet normal -0.831419 -0.555646 0
    outer loop
      vertex -15.8739 -15.3327 6.4
      vertex -15.6571 -15.6571 1.90735e-07
      vertex -15.6571 -15.6571 6.4
    endloop
  endfacet
  facet normal 0.980797 0.195032 0
    outer loop
      vertex 15.95 14.95 6.4
      vertex 15.8739 15.3327 1.90735e-07
      vertex 15.8739 15.3327 6.4
    endloop
  endfacet
  facet normal 0.980797 0.195032 0
    outer loop
      vertex 15.8739 15.3327 1.90735e-07
      vertex 15.95 14.95 6.4
      vertex 15.95 14.95 1.90735e-07
    endloop
  endfacet
  facet normal 0.831419 0.555646 0
    outer loop
      vertex 15.8739 15.3327 6.4
      vertex 15.6571 15.6571 1.90735e-07
      vertex 15.6571 15.6571 6.4
    endloop
  endfacet
  facet normal 0.831419 0.555646 0
    outer loop
      vertex 15.6571 15.6571 1.90735e-07
      vertex 15.8739 15.3327 6.4
      vertex 15.8739 15.3327 1.90735e-07
    endloop
  endfacet
  facet normal 0 -1 0
    outer loop
      vertex -14.95 -15.95 1.90735e-07
      vertex 14.95 -15.95 6.4
      vertex -14.95 -15.95 6.4
    endloop
  endfacet
  facet normal 0 -1 -0
    outer loop
      vertex 14.95 -15.95 6.4
      vertex -14.95 -15.95 1.90735e-07
      vertex 14.95 -15.95 1.90735e-07
    endloop
  endfacet
  facet normal 0 1 -0
    outer loop
      vertex 14.95 15.95 1.90735e-07
      vertex -14.95 15.95 6.4
      vertex 14.95 15.95 6.4
    endloop
  endfacet
  facet normal 0 1 0
    outer loop
      vertex -14.95 15.95 6.4
      vertex 14.95 15.95 1.90735e-07
      vertex -14.95 15.95 1.90735e-07
    endloop
  endfacet
  facet normal 0.831419 -0.555646 0
    outer loop
      vertex 15.6571 -15.6571 6.4
      vertex 15.8739 -15.3327 1.90735e-07
      vertex 15.8739 -15.3327 6.4
    endloop
  endfacet
  facet normal 0.831419 -0.555646 0
    outer loop
      vertex 15.8739 -15.3327 1.90735e-07
      vertex 15.6571 -15.6571 6.4
      vertex 15.6571 -15.6571 1.90735e-07
    endloop
  endfacet
  facet normal -0 0 1
    outer loop
      vertex -14.4 -6.4 6.4
      vertex -9.6 -9.6 6.4
      vertex -9.6 -6.4 6.4
    endloop
  endfacet
  facet normal 0 0 1
    outer loop
      vertex -9.6 -9.6 6.4
      vertex -14.4 -6.4 6.4
      vertex -14.4 -9.6 6.4
    endloop
  endfacet
  facet normal -0 0 1
    outer loop
      vertex -14.4 1.6 6.4
      vertex -9.6 -1.6 6.4
      vertex -9.6 1.6 6.4
    endloop
  endfacet
  facet normal 0 0 1
    outer loop
      vertex -9.6 -1.6 6.4
      vertex -14.4 1.6 6.4
      vertex -14.4 -1.6 6.4
    endloop
  endfacet
  facet normal -0 0 1
    outer loop
      vertex -14.4 9.6 6.4
      vertex -9.6 6.4 6.4
      vertex -9.6 9.6 6.4
    endloop
  endfacet
  facet normal 0 0 1
    outer loop
      vertex -9.6 6.4 6.4
      vertex -14.4 9.6 6.4
      vertex -14.4 6.4 6.4
    endloop
  endfacet
  facet normal -0 0 1
    outer loop
      vertex -6.4 -6.4 6.4
      vertex -1.6 -9.6 6.4
      vertex -1.6 -6.4 6.4
    endloop
  endfacet
  facet normal 0 0 1
    outer loop
      vertex -1.6 -9.6 6.4
      vertex -6.4 -6.4 6.4
      vertex -6.4 -9.6 6.4
    endloop
  endfacet
  facet normal -0 0 1
    outer loop
      vertex -6.4 1.6 6.4
      vertex -1.6 -1.6 6.4
      vertex -1.6 1.6 6.4
    endloop
  endfacet
  facet normal 0 0 1
    outer loop
      vertex -1.6 -1.6 6.4
      vertex -6.4 1.6 6.4
      vertex -6.4 -1.6 6.4
    endloop
  endfacet
  facet normal -0 0 1
    outer loop
      vertex -6.4 9.6 6.4
      vertex -1.6 6.4 6.4
      vertex -1.6 9.6 6.4
    endloop
  endfacet
  facet normal 0 0 1
    outer loop
      vertex -1.6 6.4 6.4
      vertex -6.4 9.6 6.4
      vertex -6.4 6.4 6.4
    endloop
  endfacet
  facet normal -0 0 1
    outer loop
      vertex 1.6 -6.4 6.4
      vertex 6.4 -9.6 6.4
      vertex 6.4 -6.4 6.4
    endloop
  endfacet
  facet normal 0 0 1
    outer loop
      vertex 6.4 -9.6 6.4
      vertex 1.6 -6.4 6.4
      vertex 1.6 -9.6 6.4
    endloop
  endfacet
  facet normal -0 0 1
    outer loop
      vertex 1.6 1.6 6.4
      vertex 6.4 -1.6 6.4
      vertex 6.4 1.6 6.4
    endloop
  endfacet
  facet normal 0 0 1
    outer loop
      vertex 6.4 -1.6 6.4
      vertex 1.6 1.6 6.4
      vertex 1.6 -1.6 6.4
    endloop
  endfacet
  facet normal -0 0 1
    outer loop
      vertex 1.6 9.6 6.4
      vertex 6.4 6.4 6.4
      vertex 6.4 9.6 6.4
    endloop
  endfacet
  facet normal 0 0 1
    outer loop
      vertex 6.4 6.4 6.4
      vertex 1.6 9.6 6.4
      vertex 1.6 6.4 6.4
    endloop
  endfacet
  facet normal -0 0 1
    outer loop
      vertex 9.6 -6.4 6.4
      vertex 14.4 -9.6 6.4
      vertex 14.4 -6.4 6.4
    endloop
  endfacet
  facet normal 0 0 1
    outer loop
      vertex 14.4 -9.6 6.4
      vertex 9.6 -6.4 6.4
      vertex 9.6 -9.6 6.4
    endloop
  endfacet
  facet normal -0 0 1
    outer loop
      vertex 9.6 1.6 6.4
      vertex 14.4 -1.6 6.4
      vertex 14.4 1.6 6.4
    endloop
  endfacet
  facet normal 0 0 1
    outer loop
      vertex 14.4 -1.6 6.4
      vertex 9.6 1.6 6.4
      vertex 9.6 -1.6 6.4
    endloop
  endfacet
  facet normal -0 0 1
    outer loop
      vertex 9.6 9.6 6.4
      vertex 14.4 6.4 6.4
      vertex 14.4 9.6 6.4
    endloop
  endfacet
  facet normal 0 0 1
    outer loop
      vertex 14.4 6.4 6.4
      vertex 9.6 9.6 6.4
      vertex 9.6 6.4 6.4
    endloop
  endfacet
  facet normal 0 0 1
    outer loop
      vertex 14.4 14.4 6.4
      vertex 15.95 14.95 6.4
      vertex 15.8739 15.3327 6.4
    endloop
  endfacet
  facet normal 0 0 1
    outer loop
      vertex 15.95 14.95 6.4
      vertex 14.4 1.6 6.4
      vertex 15.95 -14.95 6.4
    endloop
  endfacet
  facet normal 0 0 1
    outer loop
      vertex 14.4 14.4 6.4
      vertex 15.8739 15.3327 6.4
      vertex 15.6571 15.6571 6.4
    endloop
  endfacet
  facet normal -0 0 1
    outer loop
      vertex 14.4 -1.6 6.4
      vertex 15.95 -14.95 6.4
      vertex 14.4 1.6 6.4
    endloop
  endfacet
  facet normal 0 0 1
    outer loop
      vertex 14.4 14.4 6.4
      vertex 15.6571 15.6571 6.4
      vertex 15.3327 15.8739 6.4
    endloop
  endfacet
  facet normal -0 0 1
    outer loop
      vertex 14.4 -6.4 6.4
      vertex 15.95 -14.95 6.4
      vertex 14.4 -1.6 6.4
    endloop
  endfacet
  facet normal 0 0 1
    outer loop
      vertex 14.4 14.4 6.4
      vertex 15.3327 15.8739 6.4
      vertex 14.95 15.95 6.4
    endloop
  endfacet
  facet normal -0 0 1
    outer loop
      vertex 14.4 -9.6 6.4
      vertex 15.95 -14.95 6.4
      vertex 14.4 -6.4 6.4
    endloop
  endfacet
  facet normal 0 0 1
    outer loop
      vertex 15.95 14.95 6.4
      vertex 14.4 14.4 6.4
      vertex 14.4 9.6 6.4
    endloop
  endfacet
  facet normal 0 0 1
    outer loop
      vertex 14.95 15.95 6.4
      vertex 9.6 14.4 6.4
      vertex 14.4 14.4 6.4
    endloop
  endfacet
  facet normal 0 0 1
    outer loop
      vertex 6.4 9.6 6.4
      vertex 9.6 9.6 6.4
      vertex 9.6 14.4 6.4
    endloop
  endfacet
  facet normal 0 0 1
    outer loop
      vertex 9.6 9.6 6.4
      vertex 6.4 9.6 6.4
      vertex 9.6 6.4 6.4
    endloop
  endfacet
  facet normal 0 0 1
    outer loop
      vertex 9.6 6.4 6.4
      vertex 6.4 6.4 6.4
      vertex 9.6 1.6 6.4
    endloop
  endfacet
  facet normal 0 0 1
    outer loop
      vertex 6.4 1.6 6.4
      vertex 9.6 1.6 6.4
      vertex 6.4 6.4 6.4
    endloop
  endfacet
  facet normal 0 0 1
    outer loop
      vertex 6.4 -1.6 6.4
      vertex 9.6 -1.6 6.4
      vertex 6.4 1.6 6.4
    endloop
  endfacet
  facet normal 0 0 1
    outer loop
      vertex 9.6 -1.6 6.4
      vertex 6.4 -1.6 6.4
      vertex 9.6 -6.4 6.4
    endloop
  endfacet
  facet normal 0 0 1
    outer loop
      vertex 6.4 9.6 6.4
      vertex 9.6 14.4 6.4
      vertex 6.4 14.4 6.4
    endloop
  endfacet
  facet normal 0 0 1
    outer loop
      vertex 14.95 15.95 6.4
      vertex 6.4 14.4 6.4
      vertex 9.6 14.4 6.4
    endloop
  endfacet
  facet normal 0 0 1
    outer loop
      vertex 14.95 15.95 6.4
      vertex 1.6 14.4 6.4
      vertex 6.4 14.4 6.4
    endloop
  endfacet
  facet normal 0 0 1
    outer loop
      vertex -1.6 9.6 6.4
      vertex 1.6 9.6 6.4
      vertex 1.6 14.4 6.4
    endloop
  endfacet
  facet normal 0 0 1
    outer loop
      vertex 1.6 9.6 6.4
      vertex -1.6 9.6 6.4
      vertex 1.6 6.4 6.4
    endloop
  endfacet
  facet normal 0 0 1
    outer loop
      vertex 1.6 6.4 6.4
      vertex -1.6 6.4 6.4
      vertex 1.6 1.6 6.4
    endloop
  endfacet
  facet normal 0 0 1
    outer loop
      vertex -1.6 1.6 6.4
      vertex 1.6 1.6 6.4
      vertex -1.6 6.4 6.4
    endloop
  endfacet
  facet normal 0 0 1
    outer loop
      vertex -1.6 -1.6 6.4
      vertex 1.6 -1.6 6.4
      vertex -1.6 1.6 6.4
    endloop
  endfacet
  facet normal 0 0 1
    outer loop
      vertex 1.6 -1.6 6.4
      vertex -1.6 -1.6 6.4
      vertex 1.6 -6.4 6.4
    endloop
  endfacet
  facet normal 0 0 1
    outer loop
      vertex -1.6 9.6 6.4
      vertex 1.6 14.4 6.4
      vertex -1.6 14.4 6.4
    endloop
  endfacet
  facet normal 0 0 1
    outer loop
      vertex 14.95 15.95 6.4
      vertex -1.6 14.4 6.4
      vertex 1.6 14.4 6.4
    endloop
  endfacet
  facet normal -0 0 1
    outer loop
      vertex -14.95 15.95 6.4
      vertex -1.6 14.4 6.4
      vertex 14.95 15.95 6.4
    endloop
  endfacet
  facet normal 0 0 1
    outer loop
      vertex -9.6 9.6 6.4
      vertex -6.4 9.6 6.4
      vertex -6.4 14.4 6.4
    endloop
  endfacet
  facet normal 0 0 1
    outer loop
      vertex -6.4 9.6 6.4
      vertex -9.6 9.6 6.4
      vertex -6.4 6.4 6.4
    endloop
  endfacet
  facet normal 0 0 1
    outer loop
      vertex -6.4 6.4 6.4
      vertex -9.6 6.4 6.4
      vertex -6.4 1.6 6.4
    endloop
  endfacet
  facet normal 0 0 1
    outer loop
      vertex -9.6 1.6 6.4
      vertex -6.4 1.6 6.4
      vertex -9.6 6.4 6.4
    endloop
  endfacet
  facet normal 0 0 1
    outer loop
      vertex -9.6 -1.6 6.4
      vertex -6.4 -1.6 6.4
      vertex -9.6 1.6 6.4
    endloop
  endfacet
  facet normal 0 0 1
    outer loop
      vertex -6.4 -1.6 6.4
      vertex -9.6 -1.6 6.4
      vertex -6.4 -6.4 6.4
    endloop
  endfacet
  facet normal 0 0 1
    outer loop
      vertex -9.6 9.6 6.4
      vertex -6.4 14.4 6.4
      vertex -9.6 14.4 6.4
    endloop
  endfacet
  facet normal 0 0 1
    outer loop
      vertex -1.6 14.4 6.4
      vertex -14.95 15.95 6.4
      vertex -6.4 14.4 6.4
    endloop
  endfacet
  facet normal 0 0 1
    outer loop
      vertex -6.4 14.4 6.4
      vertex -14.95 15.95 6.4
      vertex -9.6 14.4 6.4
    endloop
  endfacet
  facet normal 0 0 1
    outer loop
      vertex -15.95 14.95 6.4
      vertex -14.4 9.6 6.4
      vertex -14.4 14.4 6.4
    endloop
  endfacet
  facet normal 0 0 1
    outer loop
      vertex -14.4 9.6 6.4
      vertex -15.95 14.95 6.4
      vertex -14.4 6.4 6.4
    endloop
  endfacet
  facet normal 0 0 1
    outer loop
      vertex -14.4 6.4 6.4
      vertex -15.95 14.95 6.4
      vertex -14.4 1.6 6.4
    endloop
  endfacet
  facet normal 0 0 1
    outer loop
      vertex -14.4 1.6 6.4
      vertex -15.95 14.95 6.4
      vertex -14.4 -1.6 6.4
    endloop
  endfacet
  facet normal 0 0 1
    outer loop
      vertex -15.95 -14.95 6.4
      vertex -14.4 -1.6 6.4
      vertex -15.95 14.95 6.4
    endloop
  endfacet
  facet normal 0 0 1
    outer loop
      vertex -14.4 -1.6 6.4
      vertex -15.95 -14.95 6.4
      vertex -14.4 -6.4 6.4
    endloop
  endfacet
  facet normal -0 0 1
    outer loop
      vertex -15.3327 15.8739 6.4
      vertex -14.4 14.4 6.4
      vertex -14.95 15.95 6.4
    endloop
  endfacet
  facet normal 0 0 1
    outer loop
      vertex -9.6 14.4 6.4
      vertex -14.95 15.95 6.4
      vertex -14.4 14.4 6.4
    endloop
  endfacet
  facet normal 0 0 1
    outer loop
      vertex 15.95 14.95 6.4
      vertex 14.4 9.6 6.4
      vertex 14.4 6.4 6.4
    endloop
  endfacet
  facet normal 0 0 1
    outer loop
      vertex 15.95 14.95 6.4
      vertex 14.4 6.4 6.4
      vertex 14.4 1.6 6.4
    endloop
  endfacet
  facet normal -0 0 1
    outer loop
      vertex 14.4 -14.4 6.4
      vertex 15.95 -14.95 6.4
      vertex 14.4 -9.6 6.4
    endloop
  endfacet
  facet normal 0 0 1
    outer loop
      vertex 15.95 -14.95 6.4
      vertex 14.4 -14.4 6.4
      vertex 15.8739 -15.3327 6.4
    endloop
  endfacet
  facet normal 0 0 1
    outer loop
      vertex 15.8739 -15.3327 6.4
      vertex 14.4 -14.4 6.4
      vertex 15.6571 -15.6571 6.4
    endloop
  endfacet
  facet normal 0 0 1
    outer loop
      vertex 15.6571 -15.6571 6.4
      vertex 14.4 -14.4 6.4
      vertex 15.3327 -15.8739 6.4
    endloop
  endfacet
  facet normal 0 0 1
    outer loop
      vertex 15.3327 -15.8739 6.4
      vertex 14.4 -14.4 6.4
      vertex 14.95 -15.95 6.4
    endloop
  endfacet
  facet normal -0 0 1
    outer loop
      vertex 9.6 -14.4 6.4
      vertex 14.95 -15.95 6.4
      vertex 14.4 -14.4 6.4
    endloop
  endfacet
  facet normal 0 0 1
    outer loop
      vertex 9.6 6.4 6.4
      vertex 6.4 9.6 6.4
      vertex 6.4 6.4 6.4
    endloop
  endfacet
  facet normal 0 0 1
    outer loop
      vertex 9.6 1.6 6.4
      vertex 6.4 1.6 6.4
      vertex 9.6 -1.6 6.4
    endloop
  endfacet
  facet normal 0 0 1
    outer loop
      vertex 6.4 -6.4 6.4
      vertex 9.6 -6.4 6.4
      vertex 6.4 -1.6 6.4
    endloop
  endfacet
  facet normal 0 0 1
    outer loop
      vertex 9.6 -6.4 6.4
      vertex 6.4 -6.4 6.4
      vertex 9.6 -9.6 6.4
    endloop
  endfacet
  facet normal 0 0 1
    outer loop
      vertex 6.4 -9.6 6.4
      vertex 9.6 -9.6 6.4
      vertex 6.4 -6.4 6.4
    endloop
  endfacet
  facet normal 0 0 1
    outer loop
      vertex 9.6 -9.6 6.4
      vertex 6.4 -9.6 6.4
      vertex 9.6 -14.4 6.4
    endloop
  endfacet
  facet normal 0 0 1
    outer loop
      vertex 6.4 -14.4 6.4
      vertex 9.6 -14.4 6.4
      vertex 6.4 -9.6 6.4
    endloop
  endfacet
  facet normal -0 0 1
    outer loop
      vertex 6.4 -14.4 6.4
      vertex 14.95 -15.95 6.4
      vertex 9.6 -14.4 6.4
    endloop
  endfacet
  facet normal -0 0 1
    outer loop
      vertex 1.6 -14.4 6.4
      vertex 14.95 -15.95 6.4
      vertex 6.4 -14.4 6.4
    endloop
  endfacet
  facet normal 0 0 1
    outer loop
      vertex 1.6 6.4 6.4
      vertex -1.6 9.6 6.4
      vertex -1.6 6.4 6.4
    endloop
  endfacet
  facet normal 0 0 1
    outer loop
      vertex 1.6 1.6 6.4
      vertex -1.6 1.6 6.4
      vertex 1.6 -1.6 6.4
    endloop
  endfacet
  facet normal 0 0 1
    outer loop
      vertex -1.6 -6.4 6.4
      vertex 1.6 -6.4 6.4
      vertex -1.6 -1.6 6.4
    endloop
  endfacet
  facet normal 0 0 1
    outer loop
      vertex 1.6 -6.4 6.4
      vertex -1.6 -6.4 6.4
      vertex 1.6 -9.6 6.4
    endloop
  endfacet
  facet normal 0 0 1
    outer loop
      vertex -1.6 -9.6 6.4
      vertex 1.6 -9.6 6.4
      vertex -1.6 -6.4 6.4
    endloop
  endfacet
  facet normal 0 0 1
    outer loop
      vertex 1.6 -9.6 6.4
      vertex -1.6 -9.6 6.4
      vertex 1.6 -14.4 6.4
    endloop
  endfacet
  facet normal 0 0 1
    outer loop
      vertex -1.6 -14.4 6.4
      vertex 1.6 -14.4 6.4
      vertex -1.6 -9.6 6.4
    endloop
  endfacet
  facet normal -0 0 1
    outer loop
      vertex -1.6 -14.4 6.4
      vertex 14.95 -15.95 6.4
      vertex 1.6 -14.4 6.4
    endloop
  endfacet
  facet normal 0 0 1
    outer loop
      vertex -14.95 -15.95 6.4
      vertex -1.6 -14.4 6.4
      vertex -6.4 -14.4 6.4
    endloop
  endfacet
  facet normal 0 0 1
    outer loop
      vertex -6.4 6.4 6.4
      vertex -9.6 9.6 6.4
      vertex -9.6 6.4 6.4
    endloop
  endfacet
  facet normal 0 0 1
    outer loop
      vertex -6.4 1.6 6.4
      vertex -9.6 1.6 6.4
      vertex -6.4 -1.6 6.4
    endloop
  endfacet
  facet normal 0 0 1
    outer loop
      vertex -9.6 -6.4 6.4
      vertex -6.4 -6.4 6.4
      vertex -9.6 -1.6 6.4
    endloop
  endfacet
  facet normal 0 0 1
    outer loop
      vertex -6.4 -6.4 6.4
      vertex -9.6 -6.4 6.4
      vertex -6.4 -9.6 6.4
    endloop
  endfacet
  facet normal 0 0 1
    outer loop
      vertex -9.6 -9.6 6.4
      vertex -6.4 -9.6 6.4
      vertex -9.6 -6.4 6.4
    endloop
  endfacet
  facet normal 0 0 1
    outer loop
      vertex -6.4 -9.6 6.4
      vertex -9.6 -9.6 6.4
      vertex -6.4 -14.4 6.4
    endloop
  endfacet
  facet normal 0 0 1
    outer loop
      vertex -9.6 -14.4 6.4
      vertex -6.4 -14.4 6.4
      vertex -9.6 -9.6 6.4
    endloop
  endfacet
  facet normal 0 0 1
    outer loop
      vertex -14.95 -15.95 6.4
      vertex -6.4 -14.4 6.4
      vertex -9.6 -14.4 6.4
    endloop
  endfacet
  facet normal 0 0 1
    outer loop
      vertex -14.95 -15.95 6.4
      vertex -9.6 -14.4 6.4
      vertex -14.4 -14.4 6.4
    endloop
  endfacet
  facet normal 0 0 1
    outer loop
      vertex -1.6 -14.4 6.4
      vertex -14.95 -15.95 6.4
      vertex 14.95 -15.95 6.4
    endloop
  endfacet
  facet normal 0 0 1
    outer loop
      vertex -14.4 -6.4 6.4
      vertex -15.95 -14.95 6.4
      vertex -14.4 -9.6 6.4
    endloop
  endfacet
  facet normal -0 0 1
    outer loop
      vertex -15.6571 15.6571 6.4
      vertex -14.4 14.4 6.4
      vertex -15.3327 15.8739 6.4
    endloop
  endfacet
  facet normal 0 0 1
    outer loop
      vertex -14.4 -9.6 6.4
      vertex -15.95 -14.95 6.4
      vertex -14.4 -14.4 6.4
    endloop
  endfacet
  facet normal -0 0 1
    outer loop
      vertex -15.8739 15.3327 6.4
      vertex -14.4 14.4 6.4
      vertex -15.6571 15.6571 6.4
    endloop
  endfacet
  facet normal 0 -0 1
    outer loop
      vertex -15.8739 -15.3327 6.4
      vertex -14.4 -14.4 6.4
      vertex -15.95 -14.95 6.4
    endloop
  endfacet
  facet normal 0 0 1
    outer loop
      vertex -14.4 14.4 6.4
      vertex -15.8739 15.3327 6.4
      vertex -15.95 14.95 6.4
    endloop
  endfacet
  facet normal 0 0 1
    outer loop
      vertex -14.4 -14.4 6.4
      vertex -15.3327 -15.8739 6.4
      vertex -14.95 -15.95 6.4
    endloop
  endfacet
  facet normal 0 0 1
    outer loop
      vertex -14.4 -14.4 6.4
      vertex -15.6571 -15.6571 6.4
      vertex -15.3327 -15.8739 6.4
    endloop
  endfacet
  facet normal 0 0 1
    outer loop
      vertex -14.4 -14.4 6.4
      vertex -15.8739 -15.3327 6.4
      vertex -15.6571 -15.6571 6.4
    endloop
  endfacet
  facet normal -0.980797 -0.195032 0
    outer loop
      vertex -15.8739 -15.3327 1.90735e-07
      vertex -15.95 -14.95 6.4
      vertex -15.95 -14.95 1.90735e-07
    endloop
  endfacet
  facet normal -0.980797 -0.195032 0
    outer loop
      vertex -15.95 -14.95 6.4
      vertex -15.8739 -15.3327 1.90735e-07
      vertex -15.8739 -15.3327 6.4
    endloop
  endfacet
  facet normal -0.555646 -0.831419 0
    outer loop
      vertex -15.6571 -15.6571 1.90735e-07
      vertex -15.3327 -15.8739 6.4
      vertex -15.6571 -15.6571 6.4
    endloop
  endfacet
  facet normal -0.555646 -0.831419 -0
    outer loop
      vertex -15.3327 -15.8739 6.4
      vertex -15.6571 -15.6571 1.90735e-07
      vertex -15.3327 -15.8739 1.90735e-07
    endloop
  endfacet
  facet normal 1 -0 0
    outer loop
      vertex 15.95 -14.95 6.4
      vertex 15.95 14.95 1.90735e-07
      vertex 15.95 14.95 6.4
    endloop
  endfacet
  facet normal 1 0 0
    outer loop
      vertex 15.95 14.95 1.90735e-07
      vertex 15.95 -14.95 6.4
      vertex 15.95 -14.95 1.90735e-07
    endloop
  endfacet
  facet normal -0.555646 0.831419 0
    outer loop
      vertex -15.3327 15.8739 1.90735e-07
      vertex -15.6571 15.6571 6.4
      vertex -15.3327 15.8739 6.4
    endloop
  endfacet
  facet normal -0.555646 0.831419 0
    outer loop
      vertex -15.6571 15.6571 6.4
      vertex -15.3327 15.8739 1.90735e-07
      vertex -15.6571 15.6571 1.90735e-07
    endloop
  endfacet
  facet normal -0.980797 0.195032 0
    outer loop
      vertex -15.95 14.95 1.90735e-07
      vertex -15.8739 15.3327 6.4
      vertex -15.8739 15.3327 1.90735e-07
    endloop
  endfacet
  facet normal -0.980797 0.195032 0
    outer loop
      vertex -15.8739 15.3327 6.4
      vertex -15.95 14.95 1.90735e-07
      vertex -15.95 14.95 6.4
    endloop
  endfacet
  facet normal 0.195032 0.980797 -0
    outer loop
      vertex 15.3327 15.8739 1.90735e-07
      vertex 14.95 15.95 6.4
      vertex 15.3327 15.8739 6.4
    endloop
  endfacet
  facet normal 0.195032 0.980797 0
    outer loop
      vertex 14.95 15.95 6.4
      vertex 15.3327 15.8739 1.90735e-07
      vertex 14.95 15.95 1.90735e-07
    endloop
  endfacet
  facet normal -0.831419 0.555646 0
    outer loop
      vertex -15.8739 15.3327 1.90735e-07
      vertex -15.6571 15.6571 6.4
      vertex -15.6571 15.6571 1.90735e-07
    endloop
  endfacet
  facet normal -0.831419 0.555646 0
    outer loop
      vertex -15.6571 15.6571 6.4
      vertex -15.8739 15.3327 1.90735e-07
      vertex -15.8739 15.3327 6.4
    endloop
  endfacet
  facet normal -0.195032 -0.980797 0
    outer loop
      vertex -15.3327 -15.8739 1.90735e-07
      vertex -14.95 -15.95 6.4
      vertex -15.3327 -15.8739 6.4
    endloop
  endfacet
  facet normal -0.195032 -0.980797 -0
    outer loop
      vertex -14.95 -15.95 6.4
      vertex -15.3327 -15.8739 1.90735e-07
      vertex -14.95 -15.95 1.90735e-07
    endloop
  endfacet
  facet normal -1 0 0
    outer loop
      vertex -15.95 -14.95 1.90735e-07
      vertex -15.95 14.95 6.4
      vertex -15.95 14.95 1.90735e-07
    endloop
  endfacet
  facet normal -1 -0 0
    outer loop
      vertex -15.95 14.95 6.4
      vertex -15.95 -14.95 1.90735e-07
      vertex -15.95 -14.95 6.4
    endloop
  endfacet
  facet normal 0.555646 0.831419 -0
    outer loop
      vertex 15.6571 15.6571 1.90735e-07
      vertex 15.3327 15.8739 6.4
      vertex 15.6571 15.6571 6.4
    endloop
  endfacet
  facet normal 0.555646 0.831419 0
    outer loop
      vertex 15.3327 15.8739 6.4
      vertex 15.6571 15.6571 1.90735e-07
      vertex 15.3327 15.8739 1.90735e-07
    endloop
  endfacet
  facet normal 0 0 -1
    outer loop
      vertex -14.4 6.4 1.90735e-07
      vertex -9.6 9.6 1.90735e-07
      vertex -9.6 6.4 1.90735e-07
    endloop
  endfacet
  facet normal -0 0 -1
    outer loop
      vertex -9.6 9.6 1.90735e-07
      vertex -14.4 6.4 1.90735e-07
      vertex -14.4 9.6 1.90735e-07
    endloop
  endfacet
  facet normal 0 0 -1
    outer loop
      vertex -14.4 -1.6 1.90735e-07
      vertex -9.6 1.6 1.90735e-07
      vertex -9.6 -1.6 1.90735e-07
    endloop
  endfacet
  facet normal -0 0 -1
    outer loop
      vertex -9.6 1.6 1.90735e-07
      vertex -14.4 -1.6 1.90735e-07
      vertex -14.4 1.6 1.90735e-07
    endloop
  endfacet
  facet normal 0 0 -1
    outer loop
      vertex -14.4 -9.6 1.90735e-07
      vertex -9.6 -6.4 1.90735e-07
      vertex -9.6 -9.6 1.90735e-07
    endloop
  endfacet
  facet normal -0 0 -1
    outer loop
      vertex -9.6 -6.4 1.90735e-07
      vertex -14.4 -9.6 1.90735e-07
      vertex -14.4 -6.4 1.90735e-07
    endloop
  endfacet
  facet normal 0 0 -1
    outer loop
      vertex -6.4 6.4 1.90735e-07
      vertex -1.6 9.6 1.90735e-07
      vertex -1.6 6.4 1.90735e-07
    endloop
  endfacet
  facet normal -0 0 -1
    outer loop
      vertex -1.6 9.6 1.90735e-07
      vertex -6.4 6.4 1.90735e-07
      vertex -6.4 9.6 1.90735e-07
    endloop
  endfacet
  facet normal 0 0 -1
    outer loop
      vertex -6.4 -1.6 1.90735e-07
      vertex -1.6 1.6 1.90735e-07
      vertex -1.6 -1.6 1.90735e-07
    endloop
  endfacet
  facet normal -0 0 -1
    outer loop
      vertex -1.6 1.6 1.90735e-07
      vertex -6.4 -1.6 1.90735e-07
      vertex -6.4 1.6 1.90735e-07
    endloop
  endfacet
  facet normal 0 0 -1
    outer loop
      vertex -6.4 -9.6 1.90735e-07
      vertex -1.6 -6.4 1.90735e-07
      vertex -1.6 -9.6 1.90735e-07
    endloop
  endfacet
  facet normal -0 0 -1
    outer loop
      vertex -1.6 -6.4 1.90735e-07
      vertex -6.4 -9.6 1.90735e-07
      vertex -6.4 -6.4 1.90735e-07
    endloop
  endfacet
  facet normal 0 0 -1
    outer loop
      vertex 1.6 6.4 1.90735e-07
      vertex 6.4 9.6 1.90735e-07
      vertex 6.4 6.4 1.90735e-07
    endloop
  endfacet
  facet normal -0 0 -1
    outer loop
      vertex 6.4 9.6 1.90735e-07
      vertex 1.6 6.4 1.90735e-07
      vertex 1.6 9.6 1.90735e-07
    endloop
  endfacet
  facet normal 0 0 -1
    outer loop
      vertex 1.6 -1.6 1.90735e-07
      vertex 6.4 1.6 1.90735e-07
      vertex 6.4 -1.6 1.90735e-07
    endloop
  endfacet
  facet normal -0 0 -1
    outer loop
      vertex 6.4 1.6 1.90735e-07
      vertex 1.6 -1.6 1.90735e-07
      vertex 1.6 1.6 1.90735e-07
    endloop
  endfacet
  facet normal 0 0 -1
    outer loop
      vertex 1.6 -9.6 1.90735e-07
      vertex 6.4 -6.4 1.90735e-07
      vertex 6.4 -9.6 1.90735e-07
    endloop
  endfacet
  facet normal -0 0 -1
    outer loop
      vertex 6.4 -6.4 1.90735e-07
      vertex 1.6 -9.6 1.90735e-07
      vertex 1.6 -6.4 1.90735e-07
    endloop
  endfacet
  facet normal 0 0 -1
    outer loop
      vertex 9.6 6.4 1.90735e-07
      vertex 14.4 9.6 1.90735e-07
      vertex 14.4 6.4 1.90735e-07
    endloop
  endfacet
  facet normal -0 0 -1
    outer loop
      vertex 14.4 9.6 1.90735e-07
      vertex 9.6 6.4 1.90735e-07
      vertex 9.6 9.6 1.90735e-07
    endloop
  endfacet
  facet normal 0 0 -1
    outer loop
      vertex 9.6 -1.6 1.90735e-07
      vertex 14.4 1.6 1.90735e-07
      vertex 14.4 -1.6 1.90735e-07
    endloop
  endfacet
  facet normal -0 0 -1
    outer loop
      vertex 14.4 1.6 1.90735e-07
      vertex 9.6 -1.6 1.90735e-07
      vertex 9.6 1.6 1.90735e-07
    endloop
  endfacet
  facet normal 0 0 -1
    outer loop
      vertex 9.6 -9.6 1.90735e-07
      vertex 14.4 -6.4 1.90735e-07
      vertex 14.4 -9.6 1.90735e-07
    endloop
  endfacet
  facet normal -0 0 -1
    outer loop
      vertex 14.4 -6.4 1.90735e-07
      vertex 9.6 -9.6 1.90735e-07
      vertex 9.6 -6.4 1.90735e-07
    endloop
  endfacet
  facet normal 0 0 -1
    outer loop
      vertex 14.4 -14.4 1.90735e-07
      vertex 15.95 -14.95 1.90735e-07
      vertex 15.8739 -15.3327 1.90735e-07
    endloop
  endfacet
  facet normal 0 0 -1
    outer loop
      vertex 15.95 -14.95 1.90735e-07
      vertex 14.4 -1.6 1.90735e-07
      vertex 15.95 14.95 1.90735e-07
    endloop
  endfacet
  facet normal 0 0 -1
    outer loop
      vertex 14.4 -14.4 1.90735e-07
      vertex 15.8739 -15.3327 1.90735e-07
      vertex 15.6571 -15.6571 1.90735e-07
    endloop
  endfacet
  facet normal 0 0 -1
    outer loop
      vertex 14.4 1.6 1.90735e-07
      vertex 15.95 14.95 1.90735e-07
      vertex 14.4 -1.6 1.90735e-07
    endloop
  endfacet
  facet normal 0 0 -1
    outer loop
      vertex 14.4 -14.4 1.90735e-07
      vertex 15.6571 -15.6571 1.90735e-07
      vertex 15.3327 -15.8739 1.90735e-07
    endloop
  endfacet
  facet normal 0 0 -1
    outer loop
      vertex 14.4 6.4 1.90735e-07
      vertex 15.95 14.95 1.90735e-07
      vertex 14.4 1.6 1.90735e-07
    endloop
  endfacet
  facet normal 0 0 -1
    outer loop
      vertex 14.4 -14.4 1.90735e-07
      vertex 15.3327 -15.8739 1.90735e-07
      vertex 14.95 -15.95 1.90735e-07
    endloop
  endfacet
  facet normal 0 0 -1
    outer loop
      vertex 14.4 9.6 1.90735e-07
      vertex 15.95 14.95 1.90735e-07
      vertex 14.4 6.4 1.90735e-07
    endloop
  endfacet
  facet normal 0 0 -1
    outer loop
      vertex 15.95 -14.95 1.90735e-07
      vertex 14.4 -14.4 1.90735e-07
      vertex 14.4 -9.6 1.90735e-07
    endloop
  endfacet
  facet normal 0 0 -1
    outer loop
      vertex 14.95 -15.95 1.90735e-07
      vertex 9.6 -14.4 1.90735e-07
      vertex 14.4 -14.4 1.90735e-07
    endloop
  endfacet
  facet normal 0 0 -1
    outer loop
      vertex 6.4 -9.6 1.90735e-07
      vertex 9.6 -9.6 1.90735e-07
      vertex 9.6 -14.4 1.90735e-07
    endloop
  endfacet
  facet normal 0 0 -1
    outer loop
      vertex 9.6 -9.6 1.90735e-07
      vertex 6.4 -9.6 1.90735e-07
      vertex 9.6 -6.4 1.90735e-07
    endloop
  endfacet
  facet normal 0 0 -1
    outer loop
      vertex 9.6 -6.4 1.90735e-07
      vertex 6.4 -6.4 1.90735e-07
      vertex 9.6 -1.6 1.90735e-07
    endloop
  endfacet
  facet normal 0 0 -1
    outer loop
      vertex 6.4 -1.6 1.90735e-07
      vertex 9.6 -1.6 1.90735e-07
      vertex 6.4 -6.4 1.90735e-07
    endloop
  endfacet
  facet normal 0 0 -1
    outer loop
      vertex 6.4 1.6 1.90735e-07
      vertex 9.6 1.6 1.90735e-07
      vertex 6.4 -1.6 1.90735e-07
    endloop
  endfacet
  facet normal 0 0 -1
    outer loop
      vertex 9.6 1.6 1.90735e-07
      vertex 6.4 1.6 1.90735e-07
      vertex 9.6 6.4 1.90735e-07
    endloop
  endfacet
  facet normal 0 0 -1
    outer loop
      vertex 6.4 -9.6 1.90735e-07
      vertex 9.6 -14.4 1.90735e-07
      vertex 6.4 -14.4 1.90735e-07
    endloop
  endfacet
  facet normal 0 0 -1
    outer loop
      vertex 14.95 -15.95 1.90735e-07
      vertex 6.4 -14.4 1.90735e-07
      vertex 9.6 -14.4 1.90735e-07
    endloop
  endfacet
  facet normal 0 0 -1
    outer loop
      vertex 14.95 -15.95 1.90735e-07
      vertex 1.6 -14.4 1.90735e-07
      vertex 6.4 -14.4 1.90735e-07
    endloop
  endfacet
  facet normal 0 0 -1
    outer loop
      vertex -1.6 -9.6 1.90735e-07
      vertex 1.6 -9.6 1.90735e-07
      vertex 1.6 -14.4 1.90735e-07
    endloop
  endfacet
  facet normal 0 0 -1
    outer loop
      vertex 1.6 -9.6 1.90735e-07
      vertex -1.6 -9.6 1.90735e-07
      vertex 1.6 -6.4 1.90735e-07
    endloop
  endfacet
  facet normal 0 0 -1
    outer loop
      vertex 1.6 -6.4 1.90735e-07
      vertex -1.6 -6.4 1.90735e-07
      vertex 1.6 -1.6 1.90735e-07
    endloop
  endfacet
  facet normal 0 0 -1
    outer loop
      vertex -1.6 -1.6 1.90735e-07
      vertex 1.6 -1.6 1.90735e-07
      vertex -1.6 -6.4 1.90735e-07
    endloop
  endfacet
  facet normal 0 0 -1
    outer loop
      vertex -1.6 1.6 1.90735e-07
      vertex 1.6 1.6 1.90735e-07
      vertex -1.6 -1.6 1.90735e-07
    endloop
  endfacet
  facet normal 0 0 -1
    outer loop
      vertex 1.6 1.6 1.90735e-07
      vertex -1.6 1.6 1.90735e-07
      vertex 1.6 6.4 1.90735e-07
    endloop
  endfacet
  facet normal 0 0 -1
    outer loop
      vertex -1.6 -9.6 1.90735e-07
      vertex 1.6 -14.4 1.90735e-07
      vertex -1.6 -14.4 1.90735e-07
    endloop
  endfacet
  facet normal 0 0 -1
    outer loop
      vertex 14.95 -15.95 1.90735e-07
      vertex -1.6 -14.4 1.90735e-07
      vertex 1.6 -14.4 1.90735e-07
    endloop
  endfacet
  facet normal 0 0 -1
    outer loop
      vertex -14.95 -15.95 1.90735e-07
      vertex -1.6 -14.4 1.90735e-07
      vertex 14.95 -15.95 1.90735e-07
    endloop
  endfacet
  facet normal 0 0 -1
    outer loop
      vertex -9.6 -9.6 1.90735e-07
      vertex -6.4 -9.6 1.90735e-07
      vertex -6.4 -14.4 1.90735e-07
    endloop
  endfacet
  facet normal 0 0 -1
    outer loop
      vertex -6.4 -9.6 1.90735e-07
      vertex -9.6 -9.6 1.90735e-07
      vertex -6.4 -6.4 1.90735e-07
    endloop
  endfacet
  facet normal 0 0 -1
    outer loop
      vertex -6.4 -6.4 1.90735e-07
      vertex -9.6 -6.4 1.90735e-07
      vertex -6.4 -1.6 1.90735e-07
    endloop
  endfacet
  facet normal 0 0 -1
    outer loop
      vertex -9.6 -1.6 1.90735e-07
      vertex -6.4 -1.6 1.90735e-07
      vertex -9.6 -6.4 1.90735e-07
    endloop
  endfacet
  facet normal 0 0 -1
    outer loop
      vertex -9.6 1.6 1.90735e-07
      vertex -6.4 1.6 1.90735e-07
      vertex -9.6 -1.6 1.90735e-07
    endloop
  endfacet
  facet normal 0 0 -1
    outer loop
      vertex -6.4 1.6 1.90735e-07
      vertex -9.6 1.6 1.90735e-07
      vertex -6.4 6.4 1.90735e-07
    endloop
  endfacet
  facet normal 0 0 -1
    outer loop
      vertex -9.6 -9.6 1.90735e-07
      vertex -6.4 -14.4 1.90735e-07
      vertex -9.6 -14.4 1.90735e-07
    endloop
  endfacet
  facet normal -0 0 -1
    outer loop
      vertex -1.6 -14.4 1.90735e-07
      vertex -14.95 -15.95 1.90735e-07
      vertex -6.4 -14.4 1.90735e-07
    endloop
  endfacet
  facet normal -0 0 -1
    outer loop
      vertex -6.4 -14.4 1.90735e-07
      vertex -14.95 -15.95 1.90735e-07
      vertex -9.6 -14.4 1.90735e-07
    endloop
  endfacet
  facet normal 0 0 -1
    outer loop
      vertex -15.95 -14.95 1.90735e-07
      vertex -14.4 -9.6 1.90735e-07
      vertex -14.4 -14.4 1.90735e-07
    endloop
  endfacet
  facet normal -0 0 -1
    outer loop
      vertex -14.4 -9.6 1.90735e-07
      vertex -15.95 -14.95 1.90735e-07
      vertex -14.4 -6.4 1.90735e-07
    endloop
  endfacet
  facet normal -0 0 -1
    outer loop
      vertex -14.4 -6.4 1.90735e-07
      vertex -15.95 -14.95 1.90735e-07
      vertex -14.4 -1.6 1.90735e-07
    endloop
  endfacet
  facet normal -0 0 -1
    outer loop
      vertex -14.4 -1.6 1.90735e-07
      vertex -15.95 -14.95 1.90735e-07
      vertex -14.4 1.6 1.90735e-07
    endloop
  endfacet
  facet normal 0 0 -1
    outer loop
      vertex -15.95 14.95 1.90735e-07
      vertex -14.4 1.6 1.90735e-07
      vertex -15.95 -14.95 1.90735e-07
    endloop
  endfacet
  facet normal 0 0 -1
    outer loop
      vertex -14.4 1.6 1.90735e-07
      vertex -15.95 14.95 1.90735e-07
      vertex -14.4 6.4 1.90735e-07
    endloop
  endfacet
  facet normal 0 0 -1
    outer loop
      vertex -15.3327 -15.8739 1.90735e-07
      vertex -14.4 -14.4 1.90735e-07
      vertex -14.95 -15.95 1.90735e-07
    endloop
  endfacet
  facet normal -0 0 -1
    outer loop
      vertex -9.6 -14.4 1.90735e-07
      vertex -14.95 -15.95 1.90735e-07
      vertex -14.4 -14.4 1.90735e-07
    endloop
  endfacet
  facet normal 0 0 -1
    outer loop
      vertex 15.95 -14.95 1.90735e-07
      vertex 14.4 -9.6 1.90735e-07
      vertex 14.4 -6.4 1.90735e-07
    endloop
  endfacet
  facet normal 0 0 -1
    outer loop
      vertex 15.95 -14.95 1.90735e-07
      vertex 14.4 -6.4 1.90735e-07
      vertex 14.4 -1.6 1.90735e-07
    endloop
  endfacet
  facet normal 0 0 -1
    outer loop
      vertex 14.4 14.4 1.90735e-07
      vertex 15.95 14.95 1.90735e-07
      vertex 14.4 9.6 1.90735e-07
    endloop
  endfacet
  facet normal -0 0 -1
    outer loop
      vertex 15.95 14.95 1.90735e-07
      vertex 14.4 14.4 1.90735e-07
      vertex 15.8739 15.3327 1.90735e-07
    endloop
  endfacet
  facet normal -0 0 -1
    outer loop
      vertex 15.8739 15.3327 1.90735e-07
      vertex 14.4 14.4 1.90735e-07
      vertex 15.6571 15.6571 1.90735e-07
    endloop
  endfacet
  facet normal -0 0 -1
    outer loop
      vertex 15.6571 15.6571 1.90735e-07
      vertex 14.4 14.4 1.90735e-07
      vertex 15.3327 15.8739 1.90735e-07
    endloop
  endfacet
  facet normal -0 0 -1
    outer loop
      vertex 15.3327 15.8739 1.90735e-07
      vertex 14.4 14.4 1.90735e-07
      vertex 14.95 15.95 1.90735e-07
    endloop
  endfacet
  facet normal 0 0 -1
    outer loop
      vertex 9.6 14.4 1.90735e-07
      vertex 14.95 15.95 1.90735e-07
      vertex 14.4 14.4 1.90735e-07
    endloop
  endfacet
  facet normal -0 0 -1
    outer loop
      vertex 9.6 -6.4 1.90735e-07
      vertex 6.4 -9.6 1.90735e-07
      vertex 6.4 -6.4 1.90735e-07
    endloop
  endfacet
  facet normal 0 0 -1
    outer loop
      vertex 9.6 -1.6 1.90735e-07
      vertex 6.4 -1.6 1.90735e-07
      vertex 9.6 1.6 1.90735e-07
    endloop
  endfacet
  facet normal 0 0 -1
    outer loop
      vertex 6.4 6.4 1.90735e-07
      vertex 9.6 6.4 1.90735e-07
      vertex 6.4 1.6 1.90735e-07
    endloop
  endfacet
  facet normal 0 0 -1
    outer loop
      vertex 9.6 6.4 1.90735e-07
      vertex 6.4 6.4 1.90735e-07
      vertex 9.6 9.6 1.90735e-07
    endloop
  endfacet
  facet normal 0 0 -1
    outer loop
      vertex 6.4 9.6 1.90735e-07
      vertex 9.6 9.6 1.90735e-07
      vertex 6.4 6.4 1.90735e-07
    endloop
  endfacet
  facet normal 0 0 -1
    outer loop
      vertex 9.6 9.6 1.90735e-07
      vertex 6.4 9.6 1.90735e-07
      vertex 9.6 14.4 1.90735e-07
    endloop
  endfacet
  facet normal 0 0 -1
    outer loop
      vertex 6.4 14.4 1.90735e-07
      vertex 9.6 14.4 1.90735e-07
      vertex 6.4 9.6 1.90735e-07
    endloop
  endfacet
  facet normal 0 0 -1
    outer loop
      vertex 6.4 14.4 1.90735e-07
      vertex 14.95 15.95 1.90735e-07
      vertex 9.6 14.4 1.90735e-07
    endloop
  endfacet
  facet normal 0 0 -1
    outer loop
      vertex 1.6 14.4 1.90735e-07
      vertex 14.95 15.95 1.90735e-07
      vertex 6.4 14.4 1.90735e-07
    endloop
  endfacet
  facet normal -0 0 -1
    outer loop
      vertex 1.6 -6.4 1.90735e-07
      vertex -1.6 -9.6 1.90735e-07
      vertex -1.6 -6.4 1.90735e-07
    endloop
  endfacet
  facet normal 0 0 -1
    outer loop
      vertex 1.6 -1.6 1.90735e-07
      vertex -1.6 -1.6 1.90735e-07
      vertex 1.6 1.6 1.90735e-07
    endloop
  endfacet
  facet normal 0 0 -1
    outer loop
      vertex -1.6 6.4 1.90735e-07
      vertex 1.6 6.4 1.90735e-07
      vertex -1.6 1.6 1.90735e-07
    endloop
  endfacet
  facet normal 0 0 -1
    outer loop
      vertex 1.6 6.4 1.90735e-07
      vertex -1.6 6.4 1.90735e-07
      vertex 1.6 9.6 1.90735e-07
    endloop
  endfacet
  facet normal 0 0 -1
    outer loop
      vertex -1.6 9.6 1.90735e-07
      vertex 1.6 9.6 1.90735e-07
      vertex -1.6 6.4 1.90735e-07
    endloop
  endfacet
  facet normal 0 0 -1
    outer loop
      vertex 1.6 9.6 1.90735e-07
      vertex -1.6 9.6 1.90735e-07
      vertex 1.6 14.4 1.90735e-07
    endloop
  endfacet
  facet normal 0 0 -1
    outer loop
      vertex -1.6 14.4 1.90735e-07
      vertex 1.6 14.4 1.90735e-07
      vertex -1.6 9.6 1.90735e-07
    endloop
  endfacet
  facet normal 0 0 -1
    outer loop
      vertex -1.6 14.4 1.90735e-07
      vertex 14.95 15.95 1.90735e-07
      vertex 1.6 14.4 1.90735e-07
    endloop
  endfacet
  facet normal 0 0 -1
    outer loop
      vertex -14.95 15.95 1.90735e-07
      vertex -1.6 14.4 1.90735e-07
      vertex -6.4 14.4 1.90735e-07
    endloop
  endfacet
  facet normal -0 0 -1
    outer loop
      vertex -6.4 -6.4 1.90735e-07
      vertex -9.6 -9.6 1.90735e-07
      vertex -9.6 -6.4 1.90735e-07
    endloop
  endfacet
  facet normal 0 0 -1
    outer loop
      vertex -6.4 -1.6 1.90735e-07
      vertex -9.6 -1.6 1.90735e-07
      vertex -6.4 1.6 1.90735e-07
    endloop
  endfacet
  facet normal 0 0 -1
    outer loop
      vertex -9.6 6.4 1.90735e-07
      vertex -6.4 6.4 1.90735e-07
      vertex -9.6 1.6 1.90735e-07
    endloop
  endfacet
  facet normal 0 0 -1
    outer loop
      vertex -6.4 6.4 1.90735e-07
      vertex -9.6 6.4 1.90735e-07
      vertex -6.4 9.6 1.90735e-07
    endloop
  endfacet
  facet normal 0 0 -1
    outer loop
      vertex -9.6 9.6 1.90735e-07
      vertex -6.4 9.6 1.90735e-07
      vertex -9.6 6.4 1.90735e-07
    endloop
  endfacet
  facet normal 0 0 -1
    outer loop
      vertex -6.4 9.6 1.90735e-07
      vertex -9.6 9.6 1.90735e-07
      vertex -6.4 14.4 1.90735e-07
    endloop
  endfacet
  facet normal 0 0 -1
    outer loop
      vertex -9.6 14.4 1.90735e-07
      vertex -6.4 14.4 1.90735e-07
      vertex -9.6 9.6 1.90735e-07
    endloop
  endfacet
  facet normal 0 0 -1
    outer loop
      vertex -14.95 15.95 1.90735e-07
      vertex -6.4 14.4 1.90735e-07
      vertex -9.6 14.4 1.90735e-07
    endloop
  endfacet
  facet normal 0 0 -1
    outer loop
      vertex -14.95 15.95 1.90735e-07
      vertex -9.6 14.4 1.90735e-07
      vertex -14.4 14.4 1.90735e-07
    endloop
  endfacet
  facet normal 0 0 -1
    outer loop
      vertex -1.6 14.4 1.90735e-07
      vertex -14.95 15.95 1.90735e-07
      vertex 14.95 15.95 1.90735e-07
    endloop
  endfacet
  facet normal 0 0 -1
    outer loop
      vertex -14.4 6.4 1.90735e-07
      vertex -15.95 14.95 1.90735e-07
      vertex -14.4 9.6 1.90735e-07
    endloop
  endfacet
  facet normal 0 0 -1
    outer loop
      vertex -15.6571 -15.6571 1.90735e-07
      vertex -14.4 -14.4 1.90735e-07
      vertex -15.3327 -15.8739 1.90735e-07
    endloop
  endfacet
  facet normal 0 0 -1
    outer loop
      vertex -14.4 9.6 1.90735e-07
      vertex -15.95 14.95 1.90735e-07
      vertex -14.4 14.4 1.90735e-07
    endloop
  endfacet
  facet normal 0 0 -1
    outer loop
      vertex -15.8739 -15.3327 1.90735e-07
      vertex -14.4 -14.4 1.90735e-07
      vertex -15.6571 -15.6571 1.90735e-07
    endloop
  endfacet
  facet normal 0 -0 -1
    outer loop
      vertex -15.8739 15.3327 1.90735e-07
      vertex -14.4 14.4 1.90735e-07
      vertex -15.95 14.95 1.90735e-07
    endloop
  endfacet
  facet normal 0 0 -1
    outer loop
      vertex -14.4 -14.4 1.90735e-07
      vertex -15.8739 -15.3327 1.90735e-07
      vertex -15.95 -14.95 1.90735e-07
    endloop
  endfacet
  facet normal 0 0 -1
    outer loop
      vertex -14.4 14.4 1.90735e-07
      vertex -15.3327 15.8739 1.90735e-07
      vertex -14.95 15.95 1.90735e-07
    endloop
  endfacet
  facet normal 0 0 -1
    outer loop
      vertex -14.4 14.4 1.90735e-07
      vertex -15.6571 15.6571 1.90735e-07
      vertex -15.3327 15.8739 1.90735e-07
    endloop
  endfacet
  facet normal 0 0 -1
    outer loop
      vertex -14.4 14.4 1.90735e-07
      vertex -15.8739 15.3327 1.90735e-07
      vertex -15.6571 15.6571 1.90735e-07
    endloop
  endfacet
  facet normal 1 -0 0
    outer loop
      vertex -14.4 -14.4 6.4
      vertex -14.4 -9.6 1.90735e-07
      vertex -14.4 -9.6 6.4
    endloop
  endfacet
  facet normal 1 0 0
    outer loop
      vertex -14.4 -9.6 1.90735e-07
      vertex -14.4 -14.4 6.4
      vertex -14.4 -14.4 1.90735e-07
    endloop
  endfacet
  facet normal 0 -1 0
    outer loop
      vertex -14.4 -9.6 1.90735e-07
      vertex -9.6 -9.6 6.4
      vertex -14.4 -9.6 6.4
    endloop
  endfacet
  facet normal 0 -1 -0
    outer loop
      vertex -9.6 -9.6 6.4
      vertex -14.4 -9.6 1.90735e-07
      vertex -9.6 -9.6 1.90735e-07
    endloop
  endfacet
  facet normal -1 0 0
    outer loop
      vertex -9.6 -14.4 1.90735e-07
      vertex -9.6 -9.6 6.4
      vertex -9.6 -9.6 1.90735e-07
    endloop
  endfacet
  facet normal -1 -0 0
    outer loop
      vertex -9.6 -9.6 6.4
      vertex -9.6 -14.4 1.90735e-07
      vertex -9.6 -14.4 6.4
    endloop
  endfacet
  facet normal 0 1 -0
    outer loop
      vertex -9.6 -14.4 1.90735e-07
      vertex -14.4 -14.4 6.4
      vertex -9.6 -14.4 6.4
    endloop
  endfacet
  facet normal 0 1 0
    outer loop
      vertex -14.4 -14.4 6.4
      vertex -9.6 -14.4 1.90735e-07
      vertex -14.4 -14.4 1.90735e-07
    endloop
  endfacet
  facet normal 1 -0 0
    outer loop
      vertex -6.4 -14.4 6.4
      vertex -6.4 -9.6 1.90735e-07
      vertex -6.4 -9.6 6.4
    endloop
  endfacet
  facet normal 1 0 0
    outer loop
      vertex -6.4 -9.6 1.90735e-07
      vertex -6.4 -14.4 6.4
      vertex -6.4 -14.4 1.90735e-07
    endloop
  endfacet
  facet normal 0 -1 0
    outer loop
      vertex -6.4 -9.6 1.90735e-07
      vertex -1.6 -9.6 6.4
      vertex -6.4 -9.6 6.4
    endloop
  endfacet
  facet normal 0 -1 -0
    outer loop
      vertex -1.6 -9.6 6.4
      vertex -6.4 -9.6 1.90735e-07
      vertex -1.6 -9.6 1.90735e-07
    endloop
  endfacet
  facet normal -1 0 0
    outer loop
      vertex -1.6 -14.4 1.90735e-07
      vertex -1.6 -9.6 6.4
      vertex -1.6 -9.6 1.90735e-07
    endloop
  endfacet
  facet normal -1 -0 0
    outer loop
      vertex -1.6 -9.6 6.4
      vertex -1.6 -14.4 1.90735e-07
      vertex -1.6 -14.4 6.4
    endloop
  endfacet
  facet normal 0 1 -0
    outer loop
      vertex -1.6 -14.4 1.90735e-07
      vertex -6.4 -14.4 6.4
      vertex -1.6 -14.4 6.4
    endloop
  endfacet
  facet normal 0 1 0
    outer loop
      vertex -6.4 -14.4 6.4
      vertex -1.6 -14.4 1.90735e-07
      vertex -6.4 -14.4 1.90735e-07
    endloop
  endfacet
  facet normal 1 -0 0
    outer loop
      vertex 1.6 -14.4 6.4
      vertex 1.6 -9.6 1.90735e-07
      vertex 1.6 -9.6 6.4
    endloop
  endfacet
  facet normal 1 0 0
    outer loop
      vertex 1.6 -9.6 1.90735e-07
      vertex 1.6 -14.4 6.4
      vertex 1.6 -14.4 1.90735e-07
    endloop
  endfacet
  facet normal 0 -1 0
    outer loop
      vertex 1.6 -9.6 1.90735e-07
      vertex 6.4 -9.6 6.4
      vertex 1.6 -9.6 6.4
    endloop
  endfacet
  facet normal 0 -1 -0
    outer loop
      vertex 6.4 -9.6 6.4
      vertex 1.6 -9.6 1.90735e-07
      vertex 6.4 -9.6 1.90735e-07
    endloop
  endfacet
  facet normal -1 0 0
    outer loop
      vertex 6.4 -14.4 1.90735e-07
      vertex 6.4 -9.6 6.4
      vertex 6.4 -9.6 1.90735e-07
    endloop
  endfacet
  facet normal -1 -0 0
    outer loop
      vertex 6.4 -9.6 6.4
      vertex 6.4 -14.4 1.90735e-07
      vertex 6.4 -14.4 6.4
    endloop
  endfacet
  facet normal 0 1 -0
    outer loop
      vertex 6.4 -14.4 1.90735e-07
      vertex 1.6 -14.4 6.4
      vertex 6.4 -14.4 6.4
    endloop
  endfacet
  facet normal 0 1 0
    outer loop
      vertex 1.6 -14.4 6.4
      vertex 6.4 -14.4 1.90735e-07
      vertex 1.6 -14.4 1.90735e-07
    endloop
  endfacet
  facet normal 1 -0 0
    outer loop
      vertex 9.6 -14.4 6.4
      vertex 9.6 -9.6 1.90735e-07
      vertex 9.6 -9.6 6.4
    endloop
  endfacet
  facet normal 1 0 0
    outer loop
      vertex 9.6 -9.6 1.90735e-07
      vertex 9.6 -14.4 6.4
      vertex 9.6 -14.4 1.90735e-07
    endloop
  endfacet
  facet normal 0 -1 0
    outer loop
      vertex 9.6 -9.6 1.90735e-07
      vertex 14.4 -9.6 6.4
      vertex 9.6 -9.6 6.4
    endloop
  endfacet
  facet normal 0 -1 -0
    outer loop
      vertex 14.4 -9.6 6.4
      vertex 9.6 -9.6 1.90735e-07
      vertex 14.4 -9.6 1.90735e-07
    endloop
  endfacet
  facet normal -1 0 0
    outer loop
      vertex 14.4 -14.4 1.90735e-07
      vertex 14.4 -9.6 6.4
      vertex 14.4 -9.6 1.90735e-07
    endloop
  endfacet
  facet normal -1 -0 0
    outer loop
      vertex 14.4 -9.6 6.4
      vertex 14.4 -14.4 1.90735e-07
      vertex 14.4 -14.4 6.4
    endloop
  endfacet
  facet normal 0 1 -0
    outer loop
      vertex 14.4 -14.4 1.90735e-07
      vertex 9.6 -14.4 6.4
      vertex 14.4 -14.4 6.4
    endloop
  endfacet
  facet normal 0 1 0
    outer loop
      vertex 9.6 -14.4 6.4
      vertex 14.4 -14.4 1.90735e-07
      vertex 9.6 -14.4 1.90735e-07
    endloop
  endfacet
  facet normal 1 -0 0
    outer loop
      vertex -14.4 -6.4 6.4
      vertex -14.4 -1.6 1.90735e-07
      vertex -14.4 -1.6 6.4
    endloop
  endfacet
  facet normal 1 0 0
    outer loop
      vertex -14.4 -1.6 1.90735e-07
      vertex -14.4 -6.4 6.4
      vertex -14.4 -6.4 1.90735e-07
    endloop
  endfacet
  facet normal 0 -1 0
    outer loop
      vertex -14.4 -1.6 1.90735e-07
      vertex -9.6 -1.6 6.4
      vertex -14.4 -1.6 6.4
    endloop
  endfacet
  facet normal 0 -1 -0
    outer loop
      vertex -9.6 -1.6 6.4
      vertex -14.4 -1.6 1.90735e-07
      vertex -9.6 -1.6 1.90735e-07
    endloop
  endfacet
  facet normal -1 0 0
    outer loop
      vertex -9.6 -6.4 1.90735e-07
      vertex -9.6 -1.6 6.4
      vertex -9.6 -1.6 1.90735e-07
    endloop
  endfacet
  facet normal -1 -0 0
    outer loop
      vertex -9.6 -1.6 6.4
      vertex -9.6 -6.4 1.90735e-07
      vertex -9.6 -6.4 6.4
    endloop
  endfacet
  facet normal 0 1 -0
    outer loop
      vertex -9.6 -6.4 1.90735e-07
      vertex -14.4 -6.4 6.4
      vertex -9.6 -6.4 6.4
    endloop
  endfacet
  facet normal 0 1 0
    outer loop
      vertex -14.4 -6.4 6.4
      vertex -9.6 -6.4 1.90735e-07
      vertex -14.4 -6.4 1.90735e-07
    endloop
  endfacet
  facet normal 1 -0 0
    outer loop
      vertex -6.4 -6.4 6.4
      vertex -6.4 -1.6 1.90735e-07
      vertex -6.4 -1.6 6.4
    endloop
  endfacet
  facet normal 1 0 0
    outer loop
      vertex -6.4 -1.6 1.90735e-07
      vertex -6.4 -6.4 6.4
      vertex -6.4 -6.4 1.90735e-07
    endloop
  endfacet
  facet normal 0 -1 0
    outer loop
      vertex -6.4 -1.6 1.90735e-07
      vertex -1.6 -1.6 6.4
      vertex -6.4 -1.6 6.4
    endloop
  endfacet
  facet normal 0 -1 -0
    outer loop
      vertex -1.6 -1.6 6.4
      vertex -6.4 -1.6 1.90735e-07
      vertex -1.6 -1.6 1.90735e-07
    endloop
  endfacet
  facet normal -1 0 0
    outer loop
      vertex -1.6 -6.4 1.90735e-07
      vertex -1.6 -1.6 6.4
      vertex -1.6 -1.6 1.90735e-07
    endloop
  endfacet
  facet normal -1 -0 0
    outer loop
      vertex -1.6 -1.6 6.4
      vertex -1.6 -6.4 1.90735e-07
      vertex -1.6 -6.4 6.4
    endloop
  endfacet
  facet normal 0 1 -0
    outer loop
      vertex -1.6 -6.4 1.90735e-07
      vertex -6.4 -6.4 6.4
      vertex -1.6 -6.4 6.4
    endloop
  endfacet
  facet normal 0 1 0
    outer loop
      vertex -6.4 -6.4 6.4
      vertex -1.6 -6.4 1.90735e-07
      vertex -6.4 -6.4 1.90735e-07
    endloop
  endfacet
  facet normal 1 -0 0
    outer loop
      vertex 1.6 -6.4 6.4
      vertex 1.6 -1.6 1.90735e-07
      vertex 1.6 -1.6 6.4
    endloop
  endfacet
  facet normal 1 0 0
    outer loop
      vertex 1.6 -1.6 1.90735e-07
      vertex 1.6 -6.4 6.4
      vertex 1.6 -6.4 1.90735e-07
    endloop
  endfacet
  facet normal 0 -1 0
    outer loop
      vertex 1.6 -1.6 1.90735e-07
      vertex 6.4 -1.6 6.4
      vertex 1.6 -1.6 6.4
    endloop
  endfacet
  facet normal 0 -1 -0
    outer loop
      vertex 6.4 -1.6 6.4
      vertex 1.6 -1.6 1.90735e-07
      vertex 6.4 -1.6 1.90735e-07
    endloop
  endfacet
  facet normal -1 0 0
    outer loop
      vertex 6.4 -6.4 1.90735e-07
      vertex 6.4 -1.6 6.4
      vertex 6.4 -1.6 1.90735e-07
    endloop
  endfacet
  facet normal -1 -0 0
    outer loop
      vertex 6.4 -1.6 6.4
      vertex 6.4 -6.4 1.90735e-07
      vertex 6.4 -6.4 6.4
    endloop
  endfacet
  facet normal 0 1 -0
    outer loop
      vertex 6.4 -6.4 1.90735e-07
      vertex 1.6 -6.4 6.4
      vertex 6.4 -6.4 6.4
    endloop
  endfacet
  facet normal 0 1 0
    outer loop
      vertex 1.6 -6.4 6.4
      vertex 6.4 -6.4 1.90735e-07
      vertex 1.6 -6.4 1.90735e-07
    endloop
  endfacet
  facet normal 1 -0 0
    outer loop
      vertex 9.6 -6.4 6.4
      vertex 9.6 -1.6 1.90735e-07
      vertex 9.6 -1.6 6.4
    endloop
  endfacet
  facet normal 1 0 0
    outer loop
      vertex 9.6 -1.6 1.90735e-07
      vertex 9.6 -6.4 6.4
      vertex 9.6 -6.4 1.90735e-07
    endloop
  endfacet
  facet normal 0 -1 0
    outer loop
      vertex 9.6 -1.6 1.90735e-07
      vertex 14.4 -1.6 6.4
      vertex 9.6 -1.6 6.4
    endloop
  endfacet
  facet normal 0 -1 -0
    outer loop
      vertex 14.4 -1.6 6.4
      vertex 9.6 -1.6 1.90735e-07
      vertex 14.4 -1.6 1.90735e-07
    endloop
  endfacet
  facet normal -1 0 0
    outer loop
      vertex 14.4 -6.4 1.90735e-07
      vertex 14.4 -1.6 6.4
      vertex 14.4 -1.6 1.90735e-07
    endloop
  endfacet
  facet normal -1 -0 0
    outer loop
      vertex 14.4 -1.6 6.4
      vertex 14.4 -6.4 1.90735e-07
      vertex 14.4 -6.4 6.4
    endloop
  endfacet
  facet normal 0 1 -0
    outer loop
      vertex 14.4 -6.4 1.90735e-07
      vertex 9.6 -6.4 6.4
      vertex 14.4 -6.4 6.4
    endloop
  endfacet
  facet normal 0 1 0
    outer loop
      vertex 9.6 -6.4 6.4
      vertex 14.4 -6.4 1.90735e-07
      vertex 9.6 -6.4 1.90735e-07
    endloop
  endfacet
  facet normal 1 -0 0
    outer loop
      vertex -14.4 1.6 6.4
      vertex -14.4 6.4 1.90735e-07
      vertex -14.4 6.4 6.4
    endloop
  endfacet
  facet normal 1 0 0
    outer loop
      vertex -14.4 6.4 1.90735e-07
      vertex -14.4 1.6 6.4
      vertex -14.4 1.6 1.90735e-07
    endloop
  endfacet
  facet normal 0 -1 0
    outer loop
      vertex -14.4 6.4 1.90735e-07
      vertex -9.6 6.4 6.4
      vertex -14.4 6.4 6.4
    endloop
  endfacet
  facet normal 0 -1 -0
    outer loop
      vertex -9.6 6.4 6.4
      vertex -14.4 6.4 1.90735e-07
      vertex -9.6 6.4 1.90735e-07
    endloop
  endfacet
  facet normal -1 0 0
    outer loop
      vertex -9.6 1.6 1.90735e-07
      vertex -9.6 6.4 6.4
      vertex -9.6 6.4 1.90735e-07
    endloop
  endfacet
  facet normal -1 -0 0
    outer loop
      vertex -9.6 6.4 6.4
      vertex -9.6 1.6 1.90735e-07
      vertex -9.6 1.6 6.4
    endloop
  endfacet
  facet normal 0 1 -0
    outer loop
      vertex -9.6 1.6 1.90735e-07
      vertex -14.4 1.6 6.4
      vertex -9.6 1.6 6.4
    endloop
  endfacet
  facet normal 0 1 0
    outer loop
      vertex -14.4 1.6 6.4
      vertex -9.6 1.6 1.90735e-07
      vertex -14.4 1.6 1.90735e-07
    endloop
  endfacet
  facet normal 1 -0 0
    outer loop
      vertex -6.4 1.6 6.4
      vertex -6.4 6.4 1.90735e-07
      vertex -6.4 6.4 6.4
    endloop
  endfacet
  facet normal 1 0 0
    outer loop
      vertex -6.4 6.4 1.90735e-07
      vertex -6.4 1.6 6.4
      vertex -6.4 1.6 1.90735e-07
    endloop
  endfacet
  facet normal 0 -1 0
    outer loop
      vertex -6.4 6.4 1.90735e-07
      vertex -1.6 6.4 6.4
      vertex -6.4 6.4 6.4
    endloop
  endfacet
  facet normal 0 -1 -0
    outer loop
      vertex -1.6 6.4 6.4
      vertex -6.4 6.4 1.90735e-07
      vertex -1.6 6.4 1.90735e-07
    endloop
  endfacet
  facet normal -1 0 0
    outer loop
      vertex -1.6 1.6 1.90735e-07
      vertex -1.6 6.4 6.4
      vertex -1.6 6.4 1.90735e-07
    endloop
  endfacet
  facet normal -1 -0 0
    outer loop
      vertex -1.6 6.4 6.4
      vertex -1.6 1.6 1.90735e-07
      vertex -1.6 1.6 6.4
    endloop
  endfacet
  facet normal 0 1 -0
    outer loop
      vertex -1.6 1.6 1.90735e-07
      vertex -6.4 1.6 6.4
      vertex -1.6 1.6 6.4
    endloop
  endfacet
  facet normal 0 1 0
    outer loop
      vertex -6.4 1.6 6.4
      vertex -1.6 1.6 1.90735e-07
      vertex -6.4 1.6 1.90735e-07
    endloop
  endfacet
  facet normal 1 -0 0
    outer loop
      vertex 1.6 1.6 6.4
      vertex 1.6 6.4 1.90735e-07
      vertex 1.6 6.4 6.4
    endloop
  endfacet
  facet normal 1 0 0
    outer loop
      vertex 1.6 6.4 1.90735e-07
      vertex 1.6 1.6 6.4
      vertex 1.6 1.6 1.90735e-07
    endloop
  endfacet
  facet normal 0 -1 0
    outer loop
      vertex 1.6 6.4 1.90735e-07
      vertex 6.4 6.4 6.4
      vertex 1.6 6.4 6.4
    endloop
  endfacet
  facet normal 0 -1 -0
    outer loop
      vertex 6.4 6.4 6.4
      vertex 1.6 6.4 1.90735e-07
      vertex 6.4 6.4 1.90735e-07
    endloop
  endfacet
  facet normal -1 0 0
    outer loop
      vertex 6.4 1.6 1.90735e-07
      vertex 6.4 6.4 6.4
      vertex 6.4 6.4 1.90735e-07
    endloop
  endfacet
  facet normal -1 -0 0
    outer loop
      vertex 6.4 6.4 6.4
      vertex 6.4 1.6 1.90735e-07
      vertex 6.4 1.6 6.4
    endloop
  endfacet
  facet normal 0 1 -0
    outer loop
      vertex 6.4 1.6 1.90735e-07
      vertex 1.6 1.6 6.4
      vertex 6.4 1.6 6.4
    endloop
  endfacet
  facet normal 0 1 0
    outer loop
      vertex 1.6 1.6 6.4
      vertex 6.4 1.6 1.90735e-07
      vertex 1.6 1.6 1.90735e-07
    endloop
  endfacet
  facet normal 1 -0 0
    outer loop
      vertex 9.6 1.6 6.4
      vertex 9.6 6.4 1.90735e-07
      vertex 9.6 6.4 6.4
    endloop
  endfacet
  facet normal 1 0 0
    outer loop
      vertex 9.6 6.4 1.90735e-07
      vertex 9.6 1.6 6.4
      vertex 9.6 1.6 1.90735e-07
    endloop
  endfacet
  facet normal 0 -1 0
    outer loop
      vertex 9.6 6.4 1.90735e-07
      vertex 14.4 6.4 6.4
      vertex 9.6 6.4 6.4
    endloop
  endfacet
  facet normal 0 -1 -0
    outer loop
      vertex 14.4 6.4 6.4
      vertex 9.6 6.4 1.90735e-07
      vertex 14.4 6.4 1.90735e-07
    endloop
  endfacet
  facet normal -1 0 0
    outer loop
      vertex 14.4 1.6 1.90735e-07
      vertex 14.4 6.4 6.4
      vertex 14.4 6.4 1.90735e-07
    endloop
  endfacet
  facet normal -1 -0 0
    outer loop
      vertex 14.4 6.4 6.4
      vertex 14.4 1.6 1.90735e-07
      vertex 14.4 1.6 6.4
    endloop
  endfacet
  facet normal 0 1 -0
    outer loop
      vertex 14.4 1.6 1.90735e-07
      vertex 9.6 1.6 6.4
      vertex 14.4 1.6 6.4
    endloop
  endfacet
  facet normal 0 1 0
    outer loop
      vertex 9.6 1.6 6.4
      vertex 14.4 1.6 1.90735e-07
      vertex 9.6 1.6 1.90735e-07
    endloop
  endfacet
  facet normal 1 -0 0
    outer loop
      vertex -14.4 9.6 6.4
      vertex -14.4 14.4 1.90735e-07
      vertex -14.4 14.4 6.4
    endloop
  endfacet
  facet normal 1 0 0
    outer loop
      vertex -14.4 14.4 1.90735e-07
      vertex -14.4 9.6 6.4
      vertex -14.4 9.6 1.90735e-07
    endloop
  endfacet
  facet normal 0 -1 0
    outer loop
      vertex -14.4 14.4 1.90735e-07
      vertex -9.6 14.4 6.4
      vertex -14.4 14.4 6.4
    endloop
  endfacet
  facet normal 0 -1 -0
    outer loop
      vertex -9.6 14.4 6.4
      vertex -14.4 14.4 1.90735e-07
      vertex -9.6 14.4 1.90735e-07
    endloop
  endfacet
  facet normal -1 0 0
    outer loop
      vertex -9.6 9.6 1.90735e-07
      vertex -9.6 14.4 6.4
      vertex -9.6 14.4 1.90735e-07
    endloop
  endfacet
  facet normal -1 -0 0
    outer loop
      vertex -9.6 14.4 6.4
      vertex -9.6 9.6 1.90735e-07
      vertex -9.6 9.6 6.4
    endloop
  endfacet
  facet normal 0 1 -0
    outer loop
      vertex -9.6 9.6 1.90735e-07
      vertex -14.4 9.6 6.4
      vertex -9.6 9.6 6.4
    endloop
  endfacet
  facet normal 0 1 0
    outer loop
      vertex -14.4 9.6 6.4
      vertex -9.6 9.6 1.90735e-07
      vertex -14.4 9.6 1.90735e-07
    endloop
  endfacet
  facet normal 1 -0 0
    outer loop
      vertex -6.4 9.6 6.4
      vertex -6.4 14.4 1.90735e-07
      vertex -6.4 14.4 6.4
    endloop
  endfacet
  facet normal 1 0 0
    outer loop
      vertex -6.4 14.4 1.90735e-07
      vertex -6.4 9.6 6.4
      vertex -6.4 9.6 1.90735e-07
    endloop
  endfacet
  facet normal 0 -1 0
    outer loop
      vertex -6.4 14.4 1.90735e-07
      vertex -1.6 14.4 6.4
      vertex -6.4 14.4 6.4
    endloop
  endfacet
  facet normal 0 -1 -0
    outer loop
      vertex -1.6 14.4 6.4
      vertex -6.4 14.4 1.90735e-07
      vertex -1.6 14.4 1.90735e-07
    endloop
  endfacet
  facet normal -1 0 0
    outer loop
      vertex -1.6 9.6 1.90735e-07
      vertex -1.6 14.4 6.4
      vertex -1.6 14.4 1.90735e-07
    endloop
  endfacet
  facet normal -1 -0 0
    outer loop
      vertex -1.6 14.4 6.4
      vertex -1.6 9.6 1.90735e-07
      vertex -1.6 9.6 6.4
    endloop
  endfacet
  facet normal 0 1 -0
    outer loop
      vertex -1.6 9.6 1.90735e-07
      vertex -6.4 9.6 6.4
      vertex -1.6 9.6 6.4
    endloop
  endfacet
  facet normal 0 1 0
    outer loop
      vertex -6.4 9.6 6.4
      vertex -1.6 9.6 1.90735e-07
      vertex -6.4 9.6 1.90735e-07
    endloop
  endfacet
  facet normal 1 -0 0
    outer loop
      vertex 1.6 9.6 6.4
      vertex 1.6 14.4 1.90735e-07
      vertex 1.6 14.4 6.4
    endloop
  endfacet
  facet normal 1 0 0
    outer loop
      vertex 1.6 14.4 1.90735e-07
      vertex 1.6 9.6 6.4
      vertex 1.6 9.6 1.90735e-07
    endloop
  endfacet
  facet normal 0 -1 0
    outer loop
      vertex 1.6 14.4 1.90735e-07
      vertex 6.4 14.4 6.4
      vertex 1.6 14.4 6.4
    endloop
  endfacet
  facet normal 0 -1 -0
    outer loop
      vertex 6.4 14.4 6.4
      vertex 1.6 14.4 1.90735e-07
      vertex 6.4 14.4 1.90735e-07
    endloop
  endfacet
  facet normal -1 0 0
    outer loop
      vertex 6.4 9.6 1.90735e-07
      vertex 6.4 14.4 6.4
      vertex 6.4 14.4 1.90735e-07
    endloop
  endfacet
  facet normal -1 -0 0
    outer loop
      vertex 6.4 14.4 6.4
      vertex 6.4 9.6 1.90735e-07
      vertex 6.4 9.6 6.4
    endloop
  endfacet
  facet normal 0 1 -0
    outer loop
      vertex 6.4 9.6 1.90735e-07
      vertex 1.6 9.6 6.4
      vertex 6.4 9.6 6.4
    endloop
  endfacet
  facet normal 0 1 0
    outer loop
      vertex 1.6 9.6 6.4
      vertex 6.4 9.6 1.90735e-07
      vertex 1.6 9.6 1.90735e-07
    endloop
  endfacet
  facet normal 1 -0 0
    outer loop
      vertex 9.6 9.6 6.4
      vertex 9.6 14.4 1.90735e-07
      vertex 9.6 14.4 6.4
    endloop
  endfacet
  facet normal 1 0 0
    outer loop
      vertex 9.6 14.4 1.90735e-07
      vertex 9.6 9.6 6.4
      vertex 9.6 9.6 1.90735e-07
    endloop
  endfacet
  facet normal 0 -1 0
    outer loop
      vertex 9.6 14.4 1.90735e-07
      vertex 14.4 14.4 6.4
      vertex 9.6 14.4 6.4
    endloop
  endfacet
  facet normal 0 -1 -0
    outer loop
      vertex 14.4 14.4 6.4
      vertex 9.6 14.4 1.90735e-07
      vertex 14.4 14.4 1.90735e-07
    endloop
  endfacet
  facet normal -1 0 0
    outer loop
      vertex 14.4 9.6 1.90735e-07
      vertex 14.4 14.4 6.4
      vertex 14.4 14.4 1.90735e-07
    endloop
  endfacet
  facet normal -1 -0 0
    outer loop
      vertex 14.4 14.4 6.4
      vertex 14.4 9.6 1.90735e-07
      vertex 14.4 9.6 6.4
    endloop
  endfacet
  facet normal 0 1 -0
    outer loop
      vertex 14.4 9.6 1.90735e-07
      vertex 9.6 9.6 6.4
      vertex 14.4 9.6 6.4
    endloop
  endfacet
  facet normal 0 1 0
    outer loop
      vertex 9.6 9.6 6.4
      vertex 14.4 9.6 1.90735e-07
      vertex 9.6 9.6 1.90735e-07
    endloop
  endfacet
endsolid OpenSCAD_Model
